<?xml version="1.0" encoding="UTF-8" standalone="no"?>
<!-- Created with Inkscape (http://www.inkscape.org/) -->

<svg
   xmlns:osb="http://www.openswatchbook.org/uri/2009/osb"
   xmlns:dc="http://purl.org/dc/elements/1.1/"
   xmlns:cc="http://creativecommons.org/ns#"
   xmlns:rdf="http://www.w3.org/1999/02/22-rdf-syntax-ns#"
   xmlns:svg="http://www.w3.org/2000/svg"
   xmlns="http://www.w3.org/2000/svg"
   xmlns:sodipodi="http://sodipodi.sourceforge.net/DTD/sodipodi-0.dtd"
   xmlns:inkscape="http://www.inkscape.org/namespaces/inkscape"
   width="288mm"
   height="58mm"
   viewBox="0 0 288 58"
   version="1.1"
   id="svg85"
   inkscape:version="0.92.4 (unknown)"
   sodipodi:docname="drawing.svg">
  <defs
     id="defs79">
    <linearGradient
       id="linearGradient6138"
       osb:paint="solid">
      <stop
         style="stop-color:#e5f6ff;stop-opacity:1;"
         offset="0"
         id="stop6136" />
    </linearGradient>
  </defs>
  <sodipodi:namedview
     id="base"
     pagecolor="#ffffff"
     bordercolor="#666666"
     borderopacity="1.0"
     inkscape:pageopacity="0.0"
     inkscape:pageshadow="2"
     inkscape:zoom="0.8199067"
     inkscape:cx="444.76301"
     inkscape:cy="438.10938"
     inkscape:document-units="mm"
     inkscape:current-layer="layer1"
     showgrid="false"
     inkscape:window-width="1839"
     inkscape:window-height="1056"
     inkscape:window-x="81"
     inkscape:window-y="24"
     inkscape:window-maximized="1" />
  <metadata
     id="metadata82">
    <rdf:RDF>
      <cc:Work
         rdf:about="">
        <dc:format>image/svg+xml</dc:format>
        <dc:type
           rdf:resource="http://purl.org/dc/dcmitype/StillImage" />
        <dc:title></dc:title>
      </cc:Work>
    </rdf:RDF>
  </metadata>
  <g
     inkscape:label="Layer 1"
     inkscape:groupmode="layer"
     id="layer1"
     transform="translate(0,-239)">
    <g
       aria-label="DATÆCO
"
       style="font-style:normal;font-weight:normal;font-size:10.58333302px;line-height:1.25;font-family:sans-serif;letter-spacing:0px;word-spacing:0px;fill:#e5f6ff;fill-opacity:1;stroke:none;stroke-width:0.26458332"
       id="text3792">
      <path
         d="M 3.3967453,294.73215 H 18.283968 c 15.381111,0 25.258889,-8.74889 25.258889,-26.31723 0,-17.63888 -9.877778,-25.89389 -25.823334,-25.89389 H 3.3967453 Z m 10.4422227,-8.39611 v -35.48945 h 3.245555 c 9.736667,0 15.804445,4.79778 15.804445,17.56833 0,12.7 -6.067778,17.92112 -15.804445,17.92112 z"
         style="font-style:normal;font-variant:normal;font-weight:bold;font-stretch:normal;font-size:70.55555725px;font-family:'Noto Sans CJK TC';-inkscape-font-specification:'Noto Sans CJK TC Bold';stroke-width:0.26458332;fill:#e5f6ff;fill-opacity:1"
         id="path3796" />
      <path
         d="m 62.813343,273.2127 1.552222,-5.715 c 1.552222,-5.43278 3.104445,-11.35944 4.445,-17.07444 h 0.282222 c 1.552223,5.64444 2.963334,11.64166 4.586112,17.07444 l 1.552222,5.715 z m 18.344445,21.51945 H 92.093899 L 75.301676,242.52103 H 63.025009 l -16.721667,52.21112 h 10.583334 l 3.668889,-13.40556 h 16.933334 z"
         style="font-style:normal;font-variant:normal;font-weight:bold;font-stretch:normal;font-size:70.55555725px;font-family:'Noto Sans CJK TC';-inkscape-font-specification:'Noto Sans CJK TC Bold';stroke-width:0.26458332;fill:#e5f6ff;fill-opacity:1"
         id="path3798" />
      <path
         d="m 103.20309,294.73215 h 10.44222 v -43.53278 h 14.81667 v -8.67834 H 88.527533 v 8.67834 h 14.675557 z"
         style="font-style:normal;font-variant:normal;font-weight:bold;font-stretch:normal;font-size:70.55555725px;font-family:'Noto Sans CJK TC';-inkscape-font-specification:'Noto Sans CJK TC Bold';stroke-width:0.26458332;fill:#e5f6ff;fill-opacity:1"
         id="path3800" />
      <path
         d="m 148.68097,265.79307 c 2.25778,-4.86833 4.58611,-10.16 6.91444,-15.45167 h 0.35278 v 27.48139 16.89806 h 31.75 v -8.74889 l -21.37833,0 v -13.97 h 17.35667 v -8.74889 h -17.35667 v -12.065 h 20.60222 v -8.67834 h -37.32389 l -25.47055,52.21112 h 10.86555 l 8.00806,-16.89806 z"
         style="font-style:normal;font-variant:normal;font-weight:bold;font-stretch:normal;font-size:70.55555725px;font-family:'Noto Sans CJK TC';-inkscape-font-specification:'Noto Sans CJK TC Bold';stroke-width:0.26458332;fill:#e5f6ff;fill-opacity:1"
         id="path3802"
         inkscape:connector-curvature="0"
         sodipodi:nodetypes="cccccccccccccccccccc" />
      <path
         d="m 219.55912,295.71993 c 6.77334,0 12.34723,-2.68112 16.65111,-7.69056 l -5.50333,-6.49111 c -2.82222,3.03389 -6.35,5.15055 -10.795,5.15055 -8.255,0 -13.61722,-6.84389 -13.61722,-18.20333 0,-11.21833 5.92666,-17.99167 13.82889,-17.99167 3.95111,0 6.985,1.83445 9.59555,4.37445 l 5.50334,-6.63223 c -3.38667,-3.52777 -8.67834,-6.70277 -15.31056,-6.70277 -13.19389,0 -24.27111,10.08944 -24.27111,27.305 0,17.42722 10.72444,26.88167 23.91833,26.88167 z"
         style="font-style:normal;font-variant:normal;font-weight:bold;font-stretch:normal;font-size:70.55555725px;font-family:'Noto Sans CJK TC';-inkscape-font-specification:'Noto Sans CJK TC Bold';stroke-width:0.26458332;fill:#e5f6ff;fill-opacity:1"
         id="path3804" />
      <path
         d="m 262.54068,295.71993 c 13.82889,0 23.35389,-10.37167 23.35389,-27.30501 0,-16.93333 -9.525,-26.88166 -23.35389,-26.88166 -13.82889,0 -23.35389,9.87778 -23.35389,26.88166 0,16.93334 9.525,27.30501 23.35389,27.30501 z m 0,-9.03112 c -7.76111,0 -12.7,-7.12611 -12.7,-18.27389 0,-11.21833 4.93889,-17.92111 12.7,-17.92111 7.76111,0 12.7,6.70278 12.7,17.92111 0,11.14778 -4.93889,18.27389 -12.7,18.27389 z"
         style="font-style:normal;font-variant:normal;font-weight:bold;font-stretch:normal;font-size:70.55555725px;font-family:'Noto Sans CJK TC';-inkscape-font-specification:'Noto Sans CJK TC Bold';stroke-width:0.26458332;fill:#e5f6ff;fill-opacity:1"
         id="path3806" />
    </g>
  </g>
</svg>
